<svg width="165" height="46" viewBox="0 0 165 46" fill="none" xmlns="http://www.w3.org/2000/svg" class="Guest_Logo__32md2"><path d="M0.756421 15.1746L7.88634 2.82547C8.38236 1.96634 9.09579 1.25294 9.95494 0.756959C10.8141 0.260982 11.7887 -8.58346e-05 12.7807 2.11693e-08H27.0405C28.0325 -8.58346e-05 29.0071 0.260982 29.8663 0.756959C30.7254 1.25294 31.4388 1.96634 31.9349 2.82547L35.8589 9.62197L25.4247 28.0025C25.249 28.3069 25.2014 28.6686 25.2924 29.0081C25.3834 29.3476 25.6055 29.637 25.9099 29.8127C26.2143 29.9884 26.576 30.036 26.9155 29.9451C27.255 29.8541 27.5445 29.632 27.7202 29.3276L37.3892 12.2722L39.0648 15.1746C39.5603 16.0338 39.8212 17.0082 39.8212 18.0001C39.8212 18.9919 39.5603 19.9663 39.0648 20.8255L31.9349 33.1746C31.4388 34.0338 30.7254 34.7472 29.8663 35.2432C29.0071 35.7391 28.0325 36.0002 27.0405 36.0001H12.9816L23.0353 19.2354C23.4179 18.3935 23.4688 17.4383 23.1777 16.5605C22.8867 15.6827 22.2751 14.9471 21.4653 14.5006C20.6555 14.0542 19.707 13.9297 18.8094 14.1521C17.9118 14.3745 17.1312 14.9274 16.6235 15.7004L7.01861 31.6743L4.4026 27.1433L15.7729 7.69416C15.8492 7.56168 15.8987 7.41547 15.9185 7.26386C15.9384 7.11225 15.9281 6.95822 15.8885 6.81057C15.8488 6.66291 15.7804 6.52452 15.6872 6.40329C15.594 6.28206 15.4779 6.18037 15.3454 6.10403C15.2129 6.02769 15.0667 5.97819 14.9151 5.95835C14.7635 5.93852 14.6095 5.94874 14.4618 5.98843C14.3142 6.02813 14.1758 6.09651 14.0545 6.18969C13.9333 6.28287 13.8316 6.39901 13.7553 6.53149L3.06894 24.8137L0.756421 20.8255C0.260866 19.9663 0 18.9919 0 18.0001C0 17.0082 0.260866 16.0338 0.756421 15.1746ZM24.2236 11.5412C24.6345 11.7681 25.0863 11.9112 25.5529 11.9624C26.0195 12.0136 26.4916 11.9718 26.942 11.8395C27.3923 11.7071 27.8119 11.4868 28.1766 11.1913C28.5413 10.8958 28.8438 10.5309 29.0666 10.1178L29.1692 9.92974C29.41 9.52013 29.5661 9.06638 29.6283 8.59536C29.6906 8.12434 29.6577 7.64562 29.5317 7.18753C29.4056 6.72944 29.1889 6.3013 28.8945 5.92843C28.6 5.55557 28.2338 5.24557 27.8174 5.01678C27.4009 4.78799 26.9429 4.64505 26.4703 4.59644C25.9976 4.54783 25.5201 4.59453 25.0658 4.73377C24.6116 4.87301 24.1899 5.10196 23.8257 5.40708C23.4615 5.71219 23.1622 6.08727 22.9455 6.51011L22.8429 6.69819C22.6144 7.10657 22.4688 7.55607 22.4146 8.02088C22.3603 8.48569 22.3984 8.95664 22.5267 9.40667C22.655 9.85671 22.871 10.277 23.1622 10.6433C23.4534 11.0096 23.8141 11.3148 24.2236 11.5412Z" fill="#042866"></path><path d="M55.8212 4.02649C55.8212 1.22823 57.3142 0 60.7191 0C64.124 0 65.6063 1.22823 65.6063 4.02649C65.6063 6.82474 64.124 8.01027 60.7191 8.01027C57.3142 8.01027 55.8212 6.78202 55.8212 4.02649Z" fill="#042866"></path><path d="M64.9077 10.8613H56.5082V35.4261H64.9077V10.8613Z" fill="#042866"></path><path d="M94.6608 19.0641V35.4265H86.2613V21.3283C86.2613 17.8466 84.8328 16.7144 82.7597 16.7144C80.3322 16.7144 78.313 18.3379 78.313 22.4071V35.4265H69.892V10.8616H77.4107L77.6578 15.625C78.3418 13.9858 79.5223 12.599 81.0352 11.6573C82.5481 10.7157 84.3185 10.2658 86.1002 10.3703C91.2021 10.3703 94.6608 13.3608 94.6608 19.0641Z" fill="#042866"></path><path d="M98.8926 4.02649C98.8926 1.22823 100.375 0 103.78 0C107.185 0 108.678 1.22823 108.678 4.02649C108.678 6.82474 107.195 8.01027 103.78 8.01027C100.364 8.01027 98.8926 6.78202 98.8926 4.02649Z" fill="#042866"></path><path d="M107.948 10.8613H99.5482V35.4261H107.948V10.8613Z" fill="#042866"></path><path fill-rule="evenodd" clip-rule="evenodd" d="M137.56 37.3488C137.56 43.0521 132.018 45.9999 123.672 45.9999C114.725 45.9999 111.019 43.7357 111.019 40.2005C111.019 38.1926 112.351 36.3236 115.563 35.5866C113.415 34.6467 111.814 33.0232 111.814 30.4707C111.858 29.3217 112.269 28.2164 112.987 27.3156C113.706 26.4147 114.695 25.7652 115.81 25.4616C114.565 24.8395 113.526 23.8744 112.817 22.6812C112.109 21.4881 111.761 20.1175 111.814 18.733C111.814 13.3928 116.207 10.3809 123.866 10.3809C125.525 10.3761 127.181 10.5408 128.807 10.8722C129.451 7.08065 131.771 3.88724 136.615 4.28242L137.56 9.83619C134.446 9.3983 132.512 10.4236 131.771 11.9723C133.051 12.5793 134.126 13.5438 134.864 14.7482C135.603 15.9526 135.972 17.3446 135.928 18.7543C135.928 24.0945 131.524 27.0529 123.866 27.0529C122.276 27.0691 120.689 26.9223 119.129 26.6151C117.99 26.9034 117.539 27.4482 117.539 28.3346C117.539 29.4026 118.484 30.0007 120.117 30.0007H128.56C134.338 29.9687 137.56 32.4252 137.56 37.3488ZM130.933 38.1922C130.933 37.2096 130.192 36.6115 127.915 36.6115H121.148C118.431 36.6115 117.4 37.1562 117.4 38.331C117.4 39.7622 119.473 40.5953 124.263 40.5953C128.85 40.5526 130.976 39.5485 130.976 38.1816L130.933 38.1922ZM121.331 21.1804C120.65 20.5395 120.243 19.6638 120.192 18.7334C120.243 17.803 120.65 16.9273 121.331 16.2865C122.011 15.6457 122.913 15.2886 123.85 15.2886C124.787 15.2886 125.688 15.6457 126.368 16.2865C127.049 16.9273 127.456 17.803 127.507 18.7334C127.456 19.6638 127.049 20.5395 126.368 21.1804C125.688 21.8211 124.787 22.1782 123.85 22.1782C122.913 22.1782 122.011 21.8211 121.331 21.1804Z" fill="#042866"></path><path fill-rule="evenodd" clip-rule="evenodd" d="M151.782 35.9603C160.031 35.9603 164.821 31.1969 164.821 23.1438C164.821 15.0802 160.041 10.3274 151.782 10.3274C143.522 10.3274 138.731 15.0481 138.731 23.1438C138.731 31.2396 143.533 35.9603 151.782 35.9603ZM151.782 29.9689C148.667 29.9689 147.131 27.961 147.131 23.1442C147.131 18.3273 148.677 16.3087 151.782 16.3087C154.886 16.3087 156.422 18.3273 156.422 23.1442C156.422 27.961 154.897 29.9689 151.782 29.9689Z" fill="#042866"></path></svg>